<svg width="43" height="43" viewBox="0 0 43 43" fill="none" xmlns="http://www.w3.org/2000/svg">
<path d="M7.16666 12.5417C7.16666 11.5522 7.96881 10.75 8.95832 10.75H34.0417C35.0312 10.75 35.8333 11.5522 35.8333 12.5417V12.5417C35.8333 13.5312 35.0312 14.3333 34.0417 14.3333H8.95832C7.96881 14.3333 7.16666 13.5312 7.16666 12.5417V12.5417ZM14.3333 21.5C14.3333 20.5105 15.1355 19.7083 16.125 19.7083H34.0417C35.0312 19.7083 35.8333 20.5105 35.8333 21.5V21.5C35.8333 22.4895 35.0312 23.2917 34.0417 23.2917H16.125C15.1355 23.2917 14.3333 22.4895 14.3333 21.5V21.5ZM23.2917 30.4583C23.2917 29.4688 24.0938 28.6667 25.0833 28.6667H34.0417C35.0312 28.6667 35.8333 29.4688 35.8333 30.4583V30.4583C35.8333 31.4478 35.0312 32.25 34.0417 32.25H25.0833C24.0938 32.25 23.2917 31.4478 23.2917 30.4583V30.4583Z" fill="#A6B4FF"/>
</svg>
