<svg width="49" height="52" viewBox="0 0 49 52" fill="none" xmlns="http://www.w3.org/2000/svg">
<path d="M14.2421 31.3692C14.1208 31.3692 13.9994 31.3519 13.8781 31.3172C13.7568 31.2999 13.6354 31.2826 13.5141 31.2652C13.2021 31.1786 12.9854 30.9966 12.8641 30.7192C12.7081 30.3726 12.7081 29.9566 12.8641 29.4712C13.0374 28.9686 13.3148 28.3272 13.6961 27.5472C13.7654 27.4086 13.8348 27.2526 13.9041 27.0792C13.9908 26.9059 14.0688 26.7412 14.1381 26.5852C13.9128 26.6719 13.6701 26.8192 13.4101 27.0272C13.1674 27.2179 12.9161 27.4172 12.6561 27.6252C12.4828 27.7466 12.2921 27.7986 12.0841 27.7812C11.8588 27.7466 11.6768 27.6512 11.5381 27.4952C11.4168 27.3219 11.3734 27.1312 11.4081 26.9232C11.4254 26.7152 11.5121 26.5332 11.6681 26.3772C11.9108 26.2039 12.1621 26.0132 12.4221 25.8052C12.6994 25.5972 12.9768 25.4239 13.2541 25.2852C13.9648 24.9212 14.6148 24.8259 15.2041 24.9992C15.4814 25.0512 15.6894 25.2246 15.8281 25.5192C15.9668 25.7966 15.9581 26.1432 15.8021 26.5592C15.6634 26.9752 15.4208 27.5386 15.0741 28.2492C14.9874 28.4572 14.8921 28.6652 14.7881 28.8732C14.7014 29.0812 14.6148 29.2806 14.5281 29.4712C14.5108 29.5406 14.4848 29.6012 14.4501 29.6532C14.4328 29.7052 14.4154 29.7572 14.3981 29.8092C14.7621 29.7572 15.2908 29.5752 15.9841 29.2632C16.6948 28.9339 17.6481 28.2926 18.8441 27.3392C19.4854 26.8366 20.0661 26.3512 20.5861 25.8832C21.1061 25.3979 21.5221 24.9992 21.8341 24.6872C22.1461 24.3752 22.3021 24.2192 22.3021 24.2192C22.5101 23.9766 22.7614 23.8986 23.0561 23.9852C23.1948 24.0026 23.3074 24.0632 23.3941 24.1672C23.4808 24.2539 23.5501 24.3406 23.6021 24.4272C23.7234 24.6699 23.7321 24.9559 23.6281 25.2852C23.5414 25.5972 23.3508 26.1086 23.0561 26.8192C22.9521 27.0446 22.8481 27.2699 22.7441 27.4952C22.6574 27.7206 22.5708 27.9286 22.4841 28.1192C22.4668 28.1886 22.4494 28.2492 22.4321 28.3012C22.4321 28.3359 22.4234 28.3706 22.4061 28.4052C22.7354 28.3532 23.0821 28.2146 23.4461 27.9892C23.8274 27.7466 24.1914 27.4779 24.5381 27.1832C24.9021 26.8886 25.2054 26.6372 25.4481 26.4292C25.6214 26.2732 25.8121 26.2039 26.0201 26.2212C26.2281 26.2386 26.4101 26.3252 26.5661 26.4812C26.7048 26.6546 26.7654 26.8452 26.7481 27.0532C26.7481 27.2612 26.6614 27.4432 26.4881 27.5992C25.9508 28.0672 25.3961 28.5092 24.8241 28.9252C24.2694 29.3412 23.7061 29.6532 23.1341 29.8612C22.5794 30.0519 22.0161 30.0779 21.4441 29.9392C21.1668 29.8179 20.9674 29.6446 20.8461 29.4192C20.7421 29.1766 20.7074 28.9079 20.7421 28.6132C20.7941 28.3186 20.8981 27.9546 21.0541 27.5212C20.8634 27.6946 20.6641 27.8592 20.4561 28.0152C20.2654 28.1712 20.0574 28.3446 19.8321 28.5352C17.4401 30.4246 15.5768 31.3692 14.2421 31.3692ZM28.08 31.3692C27.9587 31.3692 27.8373 31.3519 27.716 31.3172C27.5947 31.2999 27.4733 31.2826 27.352 31.2652C27.04 31.1786 26.8233 30.9966 26.702 30.7192C26.546 30.3726 26.546 29.9566 26.702 29.4712C26.8753 28.9686 27.1527 28.3272 27.534 27.5472C27.6033 27.4086 27.6727 27.2526 27.742 27.0792C27.8287 26.9059 27.9067 26.7412 27.976 26.5852C27.7507 26.6719 27.508 26.8192 27.248 27.0272C27.0053 27.2179 26.754 27.4172 26.494 27.6252C26.3207 27.7466 26.13 27.7986 25.922 27.7812C25.6967 27.7466 25.5147 27.6512 25.376 27.4952C25.2547 27.3219 25.2113 27.1312 25.246 26.9232C25.2633 26.7152 25.35 26.5332 25.506 26.3772C25.7487 26.2039 26 26.0132 26.26 25.8052C26.5373 25.5972 26.8147 25.4239 27.092 25.2852C27.8027 24.9212 28.4527 24.8259 29.042 24.9992C29.3193 25.0512 29.5273 25.2246 29.666 25.5192C29.8047 25.7966 29.796 26.1432 29.64 26.5592C29.5013 26.9752 29.2587 27.5386 28.912 28.2492C28.8253 28.4572 28.73 28.6652 28.626 28.8732C28.5393 29.0812 28.4527 29.2806 28.366 29.4712C28.3487 29.5406 28.3227 29.6012 28.288 29.6532C28.2707 29.7052 28.2533 29.7572 28.236 29.8092C28.6 29.7572 29.1287 29.5752 29.822 29.2632C30.5327 28.9339 31.486 28.2926 32.682 27.3392C33.3233 26.8366 33.904 26.3512 34.424 25.8832C34.944 25.3979 35.36 24.9992 35.672 24.6872C35.984 24.3752 36.14 24.2192 36.14 24.2192C36.348 23.9766 36.5993 23.8986 36.894 23.9852C37.0327 24.0026 37.1453 24.0632 37.232 24.1672C37.3187 24.2539 37.388 24.3406 37.44 24.4272C37.5613 24.6699 37.57 24.9559 37.466 25.2852C37.3793 25.5972 37.1887 26.1086 36.894 26.8192C36.79 27.0446 36.686 27.2699 36.582 27.4952C36.4953 27.7206 36.4087 27.9286 36.322 28.1192C36.3047 28.1886 36.2873 28.2492 36.27 28.3012C36.27 28.3359 36.2613 28.3706 36.244 28.4052C36.5733 28.3532 36.92 28.2146 37.284 27.9892C37.6653 27.7466 38.0293 27.4779 38.376 27.1832C38.74 26.8886 39.0433 26.6372 39.286 26.4292C39.4593 26.2732 39.65 26.2039 39.858 26.2212C40.066 26.2386 40.248 26.3252 40.404 26.4812C40.5427 26.6546 40.6033 26.8452 40.586 27.0532C40.586 27.2612 40.4993 27.4432 40.326 27.5992C39.7887 28.0672 39.234 28.5092 38.662 28.9252C38.1073 29.3412 37.544 29.6532 36.972 29.8612C36.4173 30.0519 35.854 30.0779 35.282 29.9392C35.0047 29.8179 34.8053 29.6446 34.684 29.4192C34.58 29.1766 34.5453 28.9079 34.58 28.6132C34.632 28.3186 34.736 27.9546 34.892 27.5212C34.7013 27.6946 34.502 27.8592 34.294 28.0152C34.1033 28.1712 33.8953 28.3446 33.67 28.5352C31.278 30.4246 29.4147 31.3692 28.08 31.3692Z" fill="#A6B4FF"/>
<rect width="2.7106" height="28.8136" rx="1.3553" transform="matrix(0.61862 -0.785691 0.874934 0.484242 21.7595 5.40332)" fill="#A6B4FF"/>
<rect width="3.38825" height="28.8399" rx="1.69412" transform="matrix(-0.613534 0.789668 -0.87764 -0.47932 28.4272 48.9656)" fill="#A6B4FF"/>
<rect x="0.794189" y="15.0891" width="4.76498" height="30.1782" rx="2.38249" fill="#A6B4FF"/>
<rect width="3.97081" height="33.7674" rx="1.98541" transform="matrix(0.61867 0.785651 -0.874907 0.484291 29.5434 0)" fill="#A6B4FF"/>
</svg>
